<mxfile host="app.diagrams.net" agent="Mozilla/5.0 (Windows NT 10.0; Win64; x64) AppleWebKit/537.36 (KHTML, like Gecko) Chrome/128.0.0.0 Safari/537.36" version="24.7.5">
  <diagram name="Página-1" id="DhhZ8hrAWui_NFFiM7C7">
    <mxGraphModel dx="2389" dy="810" grid="1" gridSize="10" guides="1" tooltips="1" connect="1" arrows="1" fold="1" page="1" pageScale="1" pageWidth="827" pageHeight="1169" math="0" shadow="0">
      <root>
        <mxCell id="0" />
        <mxCell id="1" parent="0" />
        <mxCell id="d-UOQTOTqyrnsOtp4a_3-22" value="" style="rounded=0;whiteSpace=wrap;html=1;" parent="1" vertex="1">
          <mxGeometry x="-30" y="30" width="920" height="560" as="geometry" />
        </mxCell>
        <mxCell id="YbFIi-r7XpE4IatM20iv-1" value="Internet" style="ellipse;shape=cloud;whiteSpace=wrap;html=1;" parent="1" vertex="1">
          <mxGeometry x="110" y="255" width="120" height="80" as="geometry" />
        </mxCell>
        <mxCell id="YbFIi-r7XpE4IatM20iv-2" value="" style="ellipse;shape=cloud;whiteSpace=wrap;html=1;" parent="1" vertex="1">
          <mxGeometry x="220" y="50" width="620" height="460" as="geometry" />
        </mxCell>
        <mxCell id="YbFIi-r7XpE4IatM20iv-3" value="" style="image;html=1;image=img/lib/clip_art/networking/Firewall_02_128x128.png" parent="1" vertex="1">
          <mxGeometry x="334" y="255" width="80" height="80" as="geometry" />
        </mxCell>
        <mxCell id="d-UOQTOTqyrnsOtp4a_3-7" value="Usuario anónimo" style="shape=umlActor;verticalLabelPosition=bottom;verticalAlign=top;html=1;outlineConnect=0;" parent="1" vertex="1">
          <mxGeometry x="10" y="255" width="30" height="60" as="geometry" />
        </mxCell>
        <mxCell id="d-UOQTOTqyrnsOtp4a_3-8" value="Usuario registrado" style="shape=umlActor;verticalLabelPosition=bottom;verticalAlign=top;html=1;outlineConnect=0;" parent="1" vertex="1">
          <mxGeometry x="40" y="343.5" width="30" height="60" as="geometry" />
        </mxCell>
        <mxCell id="d-UOQTOTqyrnsOtp4a_3-11" value="Administrador" style="shape=umlActor;verticalLabelPosition=bottom;verticalAlign=top;html=1;outlineConnect=0;" parent="1" vertex="1">
          <mxGeometry x="50" y="150" width="30" height="60" as="geometry" />
        </mxCell>
        <mxCell id="OyO_EDlnmUjmT8roHE_U-3" value="" style="endArrow=none;html=1;rounded=0;exitX=0.5;exitY=0.5;exitDx=0;exitDy=0;exitPerimeter=0;entryX=0.4;entryY=0.1;entryDx=0;entryDy=0;entryPerimeter=0;" edge="1" parent="1" source="d-UOQTOTqyrnsOtp4a_3-11" target="YbFIi-r7XpE4IatM20iv-1">
          <mxGeometry width="50" height="50" relative="1" as="geometry">
            <mxPoint x="400" y="440" as="sourcePoint" />
            <mxPoint x="450" y="390" as="targetPoint" />
          </mxGeometry>
        </mxCell>
        <mxCell id="OyO_EDlnmUjmT8roHE_U-4" value="" style="endArrow=none;html=1;rounded=0;exitX=0.5;exitY=0.5;exitDx=0;exitDy=0;exitPerimeter=0;entryX=0.16;entryY=0.55;entryDx=0;entryDy=0;entryPerimeter=0;" edge="1" parent="1" source="d-UOQTOTqyrnsOtp4a_3-7" target="YbFIi-r7XpE4IatM20iv-1">
          <mxGeometry width="50" height="50" relative="1" as="geometry">
            <mxPoint x="75" y="190" as="sourcePoint" />
            <mxPoint x="188" y="253" as="targetPoint" />
          </mxGeometry>
        </mxCell>
        <mxCell id="OyO_EDlnmUjmT8roHE_U-5" value="" style="endArrow=none;html=1;rounded=0;exitX=0.5;exitY=0.5;exitDx=0;exitDy=0;exitPerimeter=0;entryX=0.31;entryY=0.8;entryDx=0;entryDy=0;entryPerimeter=0;" edge="1" parent="1" source="d-UOQTOTqyrnsOtp4a_3-8" target="YbFIi-r7XpE4IatM20iv-1">
          <mxGeometry width="50" height="50" relative="1" as="geometry">
            <mxPoint x="85" y="200" as="sourcePoint" />
            <mxPoint x="198" y="263" as="targetPoint" />
          </mxGeometry>
        </mxCell>
        <mxCell id="OyO_EDlnmUjmT8roHE_U-6" value="" style="endArrow=none;html=1;rounded=0;exitX=0.875;exitY=0.5;exitDx=0;exitDy=0;exitPerimeter=0;" edge="1" parent="1" source="YbFIi-r7XpE4IatM20iv-1" target="YbFIi-r7XpE4IatM20iv-3">
          <mxGeometry width="50" height="50" relative="1" as="geometry">
            <mxPoint x="400" y="440" as="sourcePoint" />
            <mxPoint x="340" y="290" as="targetPoint" />
          </mxGeometry>
        </mxCell>
        <mxCell id="OyO_EDlnmUjmT8roHE_U-8" value="" style="endArrow=none;html=1;rounded=0;entryX=1;entryY=0.5;entryDx=0;entryDy=0;exitX=0.891;exitY=0.523;exitDx=0;exitDy=0;exitPerimeter=0;" edge="1" parent="1" source="YbFIi-r7XpE4IatM20iv-2" target="YbFIi-r7XpE4IatM20iv-3">
          <mxGeometry width="50" height="50" relative="1" as="geometry">
            <mxPoint x="740" y="290" as="sourcePoint" />
            <mxPoint x="450" y="390" as="targetPoint" />
          </mxGeometry>
        </mxCell>
        <mxCell id="OyO_EDlnmUjmT8roHE_U-9" value="M1" style="sketch=0;outlineConnect=0;fillColor=#b0c5af;strokeColor=#82b366;dashed=0;verticalLabelPosition=bottom;verticalAlign=top;align=center;html=1;fontSize=12;fontStyle=0;aspect=fixed;pointerEvents=1;shape=mxgraph.aws4.traditional_server;" vertex="1" parent="1">
          <mxGeometry x="470" y="320" width="31.73" height="55" as="geometry" />
        </mxCell>
        <mxCell id="OyO_EDlnmUjmT8roHE_U-10" value="M2" style="sketch=0;outlineConnect=0;fillColor=#ffe6cc;strokeColor=#d79b00;dashed=0;verticalLabelPosition=bottom;verticalAlign=top;align=center;html=1;fontSize=12;fontStyle=0;aspect=fixed;pointerEvents=1;shape=mxgraph.aws4.traditional_server;" vertex="1" parent="1">
          <mxGeometry x="555" y="320" width="31.73" height="55" as="geometry" />
        </mxCell>
        <mxCell id="OyO_EDlnmUjmT8roHE_U-11" value="M3" style="sketch=0;outlineConnect=0;fillColor=#BAD0FC;strokeColor=#6c8ebf;dashed=0;verticalLabelPosition=bottom;verticalAlign=top;align=center;html=1;fontSize=12;fontStyle=0;aspect=fixed;pointerEvents=1;shape=mxgraph.aws4.traditional_server;" vertex="1" parent="1">
          <mxGeometry x="640" y="320" width="31.73" height="55" as="geometry" />
        </mxCell>
        <mxCell id="OyO_EDlnmUjmT8roHE_U-12" value="AWS" style="text;html=1;align=center;verticalAlign=middle;whiteSpace=wrap;rounded=0;" vertex="1" parent="1">
          <mxGeometry x="511.73" y="430" width="118.27" height="50" as="geometry" />
        </mxCell>
        <mxCell id="OyO_EDlnmUjmT8roHE_U-13" value="" style="endArrow=none;html=1;rounded=0;" edge="1" parent="1" source="OyO_EDlnmUjmT8roHE_U-9">
          <mxGeometry width="50" height="50" relative="1" as="geometry">
            <mxPoint x="500" y="310" as="sourcePoint" />
            <mxPoint x="486" y="290" as="targetPoint" />
          </mxGeometry>
        </mxCell>
        <mxCell id="OyO_EDlnmUjmT8roHE_U-15" value="" style="endArrow=none;html=1;rounded=0;" edge="1" parent="1" source="OyO_EDlnmUjmT8roHE_U-10">
          <mxGeometry width="50" height="50" relative="1" as="geometry">
            <mxPoint x="496" y="330" as="sourcePoint" />
            <mxPoint x="571" y="290" as="targetPoint" />
          </mxGeometry>
        </mxCell>
        <mxCell id="OyO_EDlnmUjmT8roHE_U-16" value="" style="endArrow=none;html=1;rounded=0;" edge="1" parent="1" target="OyO_EDlnmUjmT8roHE_U-11">
          <mxGeometry width="50" height="50" relative="1" as="geometry">
            <mxPoint x="656" y="290" as="sourcePoint" />
            <mxPoint x="581" y="300" as="targetPoint" />
          </mxGeometry>
        </mxCell>
      </root>
    </mxGraphModel>
  </diagram>
</mxfile>
